<svg width="191" height="82" viewBox="0 0 191 82" fill="none" xmlns="http://www.w3.org/2000/svg">
<path d="M169.345 72L169.345 75L169.345 72ZM185.059 78.3942C184.725 80.0169 185.769 81.6036 187.392 81.9382C189.014 82.2728 190.601 81.2286 190.936 79.6058L185.059 78.3942ZM37 75C73.8612 75 148.028 75 169.345 75L169.345 69C148.028 69 73.8612 69 37 69L37 75ZM169.345 75C174.855 75 179.081 76.431 181.865 77.8886C183.265 78.6214 184.274 79.347 184.882 79.8728C185.194 80.1426 185.351 80.3165 185.395 80.372C185.424 80.4072 185.361 80.3372 185.279 80.1775C185.237 80.097 185.156 79.9268 185.092 79.6864C185.035 79.4721 184.936 78.9951 185.059 78.3942L190.936 79.6058C191.069 78.96 190.965 78.4273 190.891 78.1471C190.81 77.8408 190.697 77.5946 190.612 77.4286C190.441 77.098 190.238 76.8195 190.073 76.6142C189.731 76.1887 189.292 75.754 188.806 75.3339C187.818 74.4799 186.42 73.5004 184.648 72.5729C181.089 70.7101 175.915 69 169.345 69L169.345 75Z" fill="black"/>
<circle cx="37.5" cy="37.5" r="36" fill="white" stroke="black" stroke-width="3"/>
<circle cx="37.5" cy="37.5" r="32.5" fill="black"/>
<circle cx="37" cy="37" r="4" fill="white"/>
<circle cx="44" cy="33" r="2" fill="white"/>
<circle cx="37" cy="29" r="2" fill="white"/>
<circle cx="30" cy="33" r="2" fill="white"/>
<circle cx="30" cy="41" r="2" fill="white"/>
<circle cx="37" cy="45" r="2" fill="white"/>
<circle cx="44" cy="41" r="2" fill="white"/>
<circle cx="37" cy="14" r="6" fill="white"/>
<circle cx="37" cy="61" r="6" fill="white"/>
<circle cx="57" cy="26" r="6" fill="white"/>
<circle cx="57" cy="48" r="6" fill="white"/>
<circle cx="18" cy="26" r="6" fill="white"/>
<circle cx="18" cy="48" r="6" fill="white"/>
<path d="M87.48 42.656C86.84 42.656 86.52 42.336 86.52 41.696V39.104C86.52 38.464 86.2 38.144 85.56 38.144H82.344C81.704 38.144 81.384 38.464 81.384 39.104V50.072C81.384 50.712 81.704 51.032 82.344 51.032H85.56C86.2 51.032 86.52 50.712 86.52 50.072V47.72C86.52 47.08 86.84 46.76 87.48 46.76H87.744C88.384 46.76 88.704 47.08 88.704 47.72V50.768C88.704 51.232 88.544 51.624 88.224 51.944L87.432 52.736C87.112 53.056 86.72 53.216 86.256 53.216H81.648C81.184 53.216 80.792 53.056 80.472 52.736L79.68 51.944C79.36 51.624 79.2 51.232 79.2 50.768V38.408C79.2 37.944 79.36 37.552 79.68 37.232L80.472 36.44C80.792 36.12 81.184 35.96 81.648 35.96H86.256C86.72 35.96 87.112 36.12 87.432 36.44L88.224 37.232C88.544 37.552 88.704 37.944 88.704 38.408V41.696C88.704 42.336 88.384 42.656 87.744 42.656H87.48Z" fill="black"/>
<path d="M95.3062 38.192C95.5462 37.952 95.7942 37.832 96.0502 37.832C96.3062 37.832 96.5542 37.952 96.7942 38.192C97.0342 38.432 97.1542 38.68 97.1542 38.936C97.1542 39.192 97.0342 39.44 96.7942 39.68C96.5542 39.92 96.3062 40.04 96.0502 40.04C95.7942 40.04 95.5462 39.92 95.3062 39.68C95.0662 39.44 94.9462 39.192 94.9462 38.936C94.9462 38.68 95.0662 38.432 95.3062 38.192ZM94.9702 42.32C94.9702 41.68 95.2902 41.36 95.9302 41.36H96.1702C96.8102 41.36 97.1302 41.68 97.1302 42.32V52.256C97.1302 52.896 96.8102 53.216 96.1702 53.216H95.9302C95.2902 53.216 94.9702 52.896 94.9702 52.256V42.32Z" fill="black"/>
<path d="M105.816 52.28C105.816 52.92 105.496 53.24 104.856 53.24H104.592C103.952 53.24 103.632 52.92 103.632 52.28V43.808C103.632 43.344 103.792 42.952 104.112 42.632L104.904 41.84C105.224 41.52 105.616 41.36 106.08 41.36H109.056C109.52 41.36 109.912 41.528 110.232 41.864L111 42.632C111.32 42.952 111.48 43.344 111.48 43.808V52.28C111.48 52.92 111.16 53.24 110.52 53.24H110.28C109.64 53.24 109.32 52.92 109.32 52.28V44.504C109.32 43.864 109 43.544 108.36 43.544H106.776C106.136 43.544 105.816 43.864 105.816 44.504V52.28Z" fill="black"/>
<path d="M125.527 47.792C125.527 48.432 125.207 48.752 124.567 48.752H120.871C120.231 48.752 119.911 49.072 119.911 49.712V50.048C119.911 50.688 120.231 51.008 120.871 51.008H124.567C125.207 51.008 125.527 51.328 125.527 51.968V52.232C125.527 52.872 125.207 53.192 124.567 53.192H120.151C119.687 53.192 119.295 53.024 118.975 52.688L118.207 51.92C117.887 51.6 117.727 51.208 117.727 50.744V43.784C117.727 43.32 117.887 42.928 118.207 42.608L118.975 41.84C119.295 41.52 119.687 41.36 120.151 41.36H123.103C123.567 41.36 123.959 41.52 124.279 41.84L125.047 42.608C125.367 42.928 125.527 43.32 125.527 43.784V47.792ZM119.911 45.872C119.911 46.512 120.231 46.832 120.871 46.832H122.383C123.023 46.832 123.343 46.512 123.343 45.872V44.48C123.343 43.84 123.023 43.52 122.383 43.52H120.871C120.231 43.52 119.911 43.84 119.911 44.48V45.872Z" fill="black"/>
<path d="M139.394 50.888C139.218 51.432 138.858 51.704 138.314 51.704H137.378C136.802 51.704 136.434 51.44 136.274 50.912L134.762 46.112C134.698 45.936 134.61 45.8 134.498 45.704C134.402 45.608 134.298 45.56 134.186 45.56C134.042 45.56 133.922 45.624 133.826 45.752C133.73 45.88 133.682 46.056 133.682 46.28V52.232C133.682 52.872 133.362 53.192 132.722 53.192H132.482C131.842 53.192 131.522 52.872 131.522 52.232V36.944C131.522 36.304 131.842 35.984 132.482 35.984H132.842C133.402 35.984 133.762 36.248 133.922 36.776L137.186 47.216C137.25 47.44 137.338 47.608 137.45 47.72C137.562 47.832 137.674 47.888 137.786 47.888C137.914 47.888 138.034 47.832 138.146 47.72C138.258 47.592 138.346 47.416 138.41 47.192L141.482 36.8C141.658 36.256 142.018 35.984 142.562 35.984H142.97C143.61 35.984 143.93 36.304 143.93 36.944V52.232C143.93 52.872 143.61 53.192 142.97 53.192H142.73C142.09 53.192 141.77 52.872 141.77 52.232V46.544C141.77 46.32 141.722 46.152 141.626 46.04C141.53 45.912 141.41 45.848 141.266 45.848C141.01 45.848 140.826 46.024 140.714 46.376L139.394 50.888Z" fill="black"/>
<path d="M157.302 42.608C157.622 42.944 157.782 43.344 157.782 43.808V50.768C157.782 51.232 157.622 51.632 157.302 51.968L156.534 52.736C156.214 53.056 155.822 53.216 155.358 53.216H152.382C151.918 53.216 151.526 53.056 151.206 52.736L150.414 51.944C150.094 51.624 149.934 51.232 149.934 50.768V43.808C149.934 43.344 150.094 42.952 150.414 42.632L151.206 41.84C151.526 41.52 151.918 41.36 152.382 41.36H155.358C155.822 41.36 156.214 41.52 156.534 41.84L157.302 42.608ZM155.598 44.504C155.598 43.864 155.278 43.544 154.638 43.544H153.078C152.438 43.544 152.118 43.864 152.118 44.504V50.072C152.118 50.712 152.438 51.032 153.078 51.032H154.638C155.278 51.032 155.598 50.712 155.598 50.072V44.504Z" fill="black"/>
<path d="M166.201 52.28C166.201 52.92 165.881 53.24 165.241 53.24H164.977C164.337 53.24 164.017 52.92 164.017 52.28V43.808C164.017 43.344 164.177 42.952 164.497 42.632L165.289 41.84C165.609 41.52 166.001 41.36 166.465 41.36H169.441C169.905 41.36 170.297 41.528 170.617 41.864L171.385 42.632C171.705 42.952 171.865 43.344 171.865 43.808V52.28C171.865 52.92 171.545 53.24 170.905 53.24H170.665C170.025 53.24 169.705 52.92 169.705 52.28V44.504C169.705 43.864 169.385 43.544 168.745 43.544H167.161C166.521 43.544 166.201 43.864 166.201 44.504V52.28Z" fill="black"/>
<path d="M83.5176 62.3184C83.5176 62.1621 83.4824 62.0176 83.4121 61.8848C83.3457 61.748 83.207 61.625 82.9961 61.5156C82.7891 61.4023 82.4766 61.3047 82.0586 61.2227C81.707 61.1484 81.3887 61.0605 81.1035 60.959C80.8223 60.8574 80.582 60.7344 80.3828 60.5898C80.1875 60.4453 80.0371 60.2754 79.9316 60.0801C79.8262 59.8848 79.7734 59.6562 79.7734 59.3945C79.7734 59.1445 79.8281 58.9082 79.9375 58.6855C80.0508 58.4629 80.209 58.2656 80.4121 58.0938C80.6191 57.9219 80.8672 57.7871 81.1562 57.6895C81.4453 57.5918 81.7676 57.543 82.123 57.543C82.6309 57.543 83.0645 57.6328 83.4238 57.8125C83.7832 57.9922 84.0586 58.2324 84.25 58.5332C84.4414 58.8301 84.5371 59.1602 84.5371 59.5234H83.4531C83.4531 59.3477 83.4004 59.1777 83.2949 59.0137C83.1934 58.8457 83.043 58.707 82.8438 58.5977C82.6484 58.4883 82.4082 58.4336 82.123 58.4336C81.8223 58.4336 81.5781 58.4805 81.3906 58.5742C81.207 58.6641 81.0723 58.7793 80.9863 58.9199C80.9043 59.0605 80.8633 59.209 80.8633 59.3652C80.8633 59.4824 80.8828 59.5879 80.9219 59.6816C80.9648 59.7715 81.0391 59.8555 81.1445 59.9336C81.25 60.0078 81.3984 60.0781 81.5898 60.1445C81.7812 60.2109 82.0254 60.2773 82.3223 60.3438C82.8418 60.4609 83.2695 60.6016 83.6055 60.7656C83.9414 60.9297 84.1914 61.1309 84.3555 61.3691C84.5195 61.6074 84.6016 61.8965 84.6016 62.2363C84.6016 62.5137 84.543 62.7676 84.4258 62.998C84.3125 63.2285 84.1465 63.4277 83.9277 63.5957C83.7129 63.7598 83.4551 63.8887 83.1543 63.9824C82.8574 64.0723 82.5234 64.1172 82.1523 64.1172C81.5938 64.1172 81.1211 64.0176 80.7344 63.8184C80.3477 63.6191 80.0547 63.3613 79.8555 63.0449C79.6562 62.7285 79.5566 62.3945 79.5566 62.043H80.6465C80.6621 62.3398 80.748 62.5762 80.9043 62.752C81.0605 62.9238 81.252 63.0469 81.4785 63.1211C81.7051 63.1914 81.9297 63.2266 82.1523 63.2266C82.4492 63.2266 82.6973 63.1875 82.8965 63.1094C83.0996 63.0312 83.2539 62.9238 83.3594 62.7871C83.4648 62.6504 83.5176 62.4941 83.5176 62.3184Z" fill="#BCBCBC"/>
<path d="M87.2031 57.6602V64H86.1133V57.6602H87.2031ZM86.0312 55.9785C86.0312 55.8027 86.084 55.6543 86.1895 55.5332C86.2988 55.4121 86.459 55.3516 86.6699 55.3516C86.877 55.3516 87.0352 55.4121 87.1445 55.5332C87.2578 55.6543 87.3145 55.8027 87.3145 55.9785C87.3145 56.1465 87.2578 56.291 87.1445 56.4121C87.0352 56.5293 86.877 56.5879 86.6699 56.5879C86.459 56.5879 86.2988 56.5293 86.1895 56.4121C86.084 56.291 86.0312 56.1465 86.0312 55.9785Z" fill="#BCBCBC"/>
<path d="M90.0273 59.0137V64H88.9434V57.6602H89.9688L90.0273 59.0137ZM89.7695 60.5898L89.3184 60.5723C89.3223 60.1387 89.3867 59.7383 89.5117 59.3711C89.6367 59 89.8125 58.6777 90.0391 58.4043C90.2656 58.1309 90.5352 57.9199 90.8477 57.7715C91.1641 57.6191 91.5137 57.543 91.8965 57.543C92.209 57.543 92.4902 57.5859 92.7402 57.6719C92.9902 57.7539 93.2031 57.8867 93.3789 58.0703C93.5586 58.2539 93.6953 58.4922 93.7891 58.7852C93.8828 59.0742 93.9297 59.4277 93.9297 59.8457V64H92.8398V59.834C92.8398 59.502 92.791 59.2363 92.6934 59.0371C92.5957 58.834 92.4531 58.6875 92.2656 58.5977C92.0781 58.5039 91.8477 58.457 91.5742 58.457C91.3047 58.457 91.0586 58.5137 90.8359 58.627C90.6172 58.7402 90.4277 58.8965 90.2676 59.0957C90.1113 59.2949 89.9883 59.5234 89.8984 59.7812C89.8125 60.0352 89.7695 60.3047 89.7695 60.5898Z" fill="#BCBCBC"/>
<path d="M98.1133 63.2266C98.3711 63.2266 98.6094 63.1738 98.8281 63.0684C99.0469 62.9629 99.2266 62.8184 99.3672 62.6348C99.5078 62.4473 99.5879 62.2344 99.6074 61.9961H100.639C100.619 62.3711 100.492 62.7207 100.258 63.0449C100.027 63.3652 99.7246 63.625 99.3496 63.8242C98.9746 64.0195 98.5625 64.1172 98.1133 64.1172C97.6367 64.1172 97.2207 64.0332 96.8652 63.8652C96.5137 63.6973 96.2207 63.4668 95.9863 63.1738C95.7559 62.8809 95.582 62.5449 95.4648 62.166C95.3516 61.7832 95.2949 61.3789 95.2949 60.9531V60.707C95.2949 60.2812 95.3516 59.8789 95.4648 59.5C95.582 59.1172 95.7559 58.7793 95.9863 58.4863C96.2207 58.1934 96.5137 57.9629 96.8652 57.7949C97.2207 57.627 97.6367 57.543 98.1133 57.543C98.6094 57.543 99.043 57.6445 99.4141 57.8477C99.7852 58.0469 100.076 58.3203 100.287 58.668C100.502 59.0117 100.619 59.4023 100.639 59.8398H99.6074C99.5879 59.5781 99.5137 59.3418 99.3848 59.1309C99.2598 58.9199 99.0879 58.752 98.8691 58.627C98.6543 58.498 98.4023 58.4336 98.1133 58.4336C97.7812 58.4336 97.502 58.5 97.2754 58.6328C97.0527 58.7617 96.875 58.9375 96.7422 59.1602C96.6133 59.3789 96.5195 59.623 96.4609 59.8926C96.4062 60.1582 96.3789 60.4297 96.3789 60.707V60.9531C96.3789 61.2305 96.4062 61.5039 96.4609 61.7734C96.5156 62.043 96.6074 62.2871 96.7363 62.5059C96.8691 62.7246 97.0469 62.9004 97.2695 63.0332C97.4961 63.1621 97.7773 63.2266 98.1133 63.2266Z" fill="#BCBCBC"/>
<path d="M104.488 64.1172C104.047 64.1172 103.646 64.043 103.287 63.8945C102.932 63.7422 102.625 63.5293 102.367 63.2559C102.113 62.9824 101.918 62.6582 101.781 62.2832C101.645 61.9082 101.576 61.498 101.576 61.0527V60.8066C101.576 60.291 101.652 59.832 101.805 59.4297C101.957 59.0234 102.164 58.6797 102.426 58.3984C102.688 58.1172 102.984 57.9043 103.316 57.7598C103.648 57.6152 103.992 57.543 104.348 57.543C104.801 57.543 105.191 57.6211 105.52 57.7773C105.852 57.9336 106.123 58.1523 106.334 58.4336C106.545 58.7109 106.701 59.0391 106.803 59.418C106.904 59.793 106.955 60.2031 106.955 60.6484V61.1348H102.221V60.25H105.871V60.168C105.855 59.8867 105.797 59.6133 105.695 59.3477C105.598 59.082 105.441 58.8633 105.227 58.6914C105.012 58.5195 104.719 58.4336 104.348 58.4336C104.102 58.4336 103.875 58.4863 103.668 58.5918C103.461 58.6934 103.283 58.8457 103.135 59.0488C102.986 59.252 102.871 59.5 102.789 59.793C102.707 60.0859 102.666 60.4238 102.666 60.8066V61.0527C102.666 61.3535 102.707 61.6367 102.789 61.9023C102.875 62.1641 102.998 62.3945 103.158 62.5938C103.322 62.793 103.52 62.9492 103.75 63.0625C103.984 63.1758 104.25 63.2324 104.547 63.2324C104.93 63.2324 105.254 63.1543 105.52 62.998C105.785 62.8418 106.018 62.6328 106.217 62.3711L106.873 62.8926C106.736 63.0996 106.562 63.2969 106.352 63.4844C106.141 63.6719 105.881 63.8242 105.572 63.9414C105.268 64.0586 104.906 64.1172 104.488 64.1172Z" fill="#BCBCBC"/>
<path d="M116.67 63.1094V64H111.086V63.2207L113.881 60.1094C114.225 59.7266 114.49 59.4023 114.678 59.1367C114.869 58.8672 115.002 58.627 115.076 58.416C115.154 58.2012 115.193 57.9824 115.193 57.7598C115.193 57.4785 115.135 57.2246 115.018 56.998C114.904 56.7676 114.736 56.584 114.514 56.4473C114.291 56.3105 114.021 56.2422 113.705 56.2422C113.326 56.2422 113.01 56.3164 112.756 56.4648C112.506 56.6094 112.318 56.8125 112.193 57.0742C112.068 57.3359 112.006 57.6367 112.006 57.9766H110.922C110.922 57.4961 111.027 57.0566 111.238 56.6582C111.449 56.2598 111.762 55.9434 112.176 55.709C112.59 55.4707 113.1 55.3516 113.705 55.3516C114.244 55.3516 114.705 55.4473 115.088 55.6387C115.471 55.8262 115.764 56.0918 115.967 56.4355C116.174 56.7754 116.277 57.1738 116.277 57.6309C116.277 57.8809 116.234 58.1348 116.148 58.3926C116.066 58.6465 115.951 58.9004 115.803 59.1543C115.658 59.4082 115.488 59.6582 115.293 59.9043C115.102 60.1504 114.896 60.3926 114.678 60.6309L112.393 63.1094H116.67Z" fill="#BCBCBC"/>
<path d="M123.186 59.0547V60.3555C123.186 61.0547 123.123 61.6445 122.998 62.125C122.873 62.6055 122.693 62.9922 122.459 63.2852C122.225 63.5781 121.941 63.791 121.609 63.9238C121.281 64.0527 120.91 64.1172 120.496 64.1172C120.168 64.1172 119.865 64.0762 119.588 63.9941C119.311 63.9121 119.061 63.7812 118.838 63.6016C118.619 63.418 118.432 63.1797 118.275 62.8867C118.119 62.5938 118 62.2383 117.918 61.8203C117.836 61.4023 117.795 60.9141 117.795 60.3555V59.0547C117.795 58.3555 117.857 57.7695 117.982 57.2969C118.111 56.8242 118.293 56.4453 118.527 56.1602C118.762 55.8711 119.043 55.6641 119.371 55.5391C119.703 55.4141 120.074 55.3516 120.484 55.3516C120.816 55.3516 121.121 55.3926 121.398 55.4746C121.68 55.5527 121.93 55.6797 122.148 55.8555C122.367 56.0273 122.553 56.2578 122.705 56.5469C122.861 56.832 122.98 57.1816 123.062 57.5957C123.145 58.0098 123.186 58.4961 123.186 59.0547ZM122.096 60.5312V58.873C122.096 58.4902 122.072 58.1543 122.025 57.8652C121.982 57.5723 121.918 57.3223 121.832 57.1152C121.746 56.9082 121.637 56.7402 121.504 56.6113C121.375 56.4824 121.225 56.3887 121.053 56.3301C120.885 56.2676 120.695 56.2363 120.484 56.2363C120.227 56.2363 119.998 56.2852 119.799 56.3828C119.6 56.4766 119.432 56.627 119.295 56.834C119.162 57.041 119.061 57.3125 118.99 57.6484C118.92 57.9844 118.885 58.3926 118.885 58.873V60.5312C118.885 60.9141 118.906 61.252 118.949 61.5449C118.996 61.8379 119.064 62.0918 119.154 62.3066C119.244 62.5176 119.354 62.6914 119.482 62.8281C119.611 62.9648 119.76 63.0664 119.928 63.1328C120.1 63.1953 120.289 63.2266 120.496 63.2266C120.762 63.2266 120.994 63.1758 121.193 63.0742C121.393 62.9727 121.559 62.8145 121.691 62.5996C121.828 62.3809 121.93 62.1016 121.996 61.7617C122.062 61.418 122.096 61.0078 122.096 60.5312Z" fill="#BCBCBC"/>
<path d="M128.143 55.4219V64H127.059V56.7754L124.873 57.5723V56.5938L127.973 55.4219H128.143Z" fill="#BCBCBC"/>
<path d="M136.686 59.0547V60.3555C136.686 61.0547 136.623 61.6445 136.498 62.125C136.373 62.6055 136.193 62.9922 135.959 63.2852C135.725 63.5781 135.441 63.791 135.109 63.9238C134.781 64.0527 134.41 64.1172 133.996 64.1172C133.668 64.1172 133.365 64.0762 133.088 63.9941C132.811 63.9121 132.561 63.7812 132.338 63.6016C132.119 63.418 131.932 63.1797 131.775 62.8867C131.619 62.5938 131.5 62.2383 131.418 61.8203C131.336 61.4023 131.295 60.9141 131.295 60.3555V59.0547C131.295 58.3555 131.357 57.7695 131.482 57.2969C131.611 56.8242 131.793 56.4453 132.027 56.1602C132.262 55.8711 132.543 55.6641 132.871 55.5391C133.203 55.4141 133.574 55.3516 133.984 55.3516C134.316 55.3516 134.621 55.3926 134.898 55.4746C135.18 55.5527 135.43 55.6797 135.648 55.8555C135.867 56.0273 136.053 56.2578 136.205 56.5469C136.361 56.832 136.48 57.1816 136.562 57.5957C136.645 58.0098 136.686 58.4961 136.686 59.0547ZM135.596 60.5312V58.873C135.596 58.4902 135.572 58.1543 135.525 57.8652C135.482 57.5723 135.418 57.3223 135.332 57.1152C135.246 56.9082 135.137 56.7402 135.004 56.6113C134.875 56.4824 134.725 56.3887 134.553 56.3301C134.385 56.2676 134.195 56.2363 133.984 56.2363C133.727 56.2363 133.498 56.2852 133.299 56.3828C133.1 56.4766 132.932 56.627 132.795 56.834C132.662 57.041 132.561 57.3125 132.49 57.6484C132.42 57.9844 132.385 58.3926 132.385 58.873V60.5312C132.385 60.9141 132.406 61.252 132.449 61.5449C132.496 61.8379 132.564 62.0918 132.654 62.3066C132.744 62.5176 132.854 62.6914 132.982 62.8281C133.111 62.9648 133.26 63.0664 133.428 63.1328C133.6 63.1953 133.789 63.2266 133.996 63.2266C134.262 63.2266 134.494 63.1758 134.693 63.0742C134.893 62.9727 135.059 62.8145 135.191 62.5996C135.328 62.3809 135.43 62.1016 135.496 61.7617C135.562 61.418 135.596 61.0078 135.596 60.5312Z" fill="#BCBCBC"/>
</svg>
